<svg xmlns="http://www.w3.org/2000/svg" xmlns:xlink="http://www.w3.org/1999/xlink" width="101" height="44" viewBox="0 0 101 44">
    <defs>
        <path id="iauwka6fia" d="M0.068 0.474L4.562 0.474 4.562 4.95 0.068 4.95z"/>
        <path id="xo41mosfkc" d="M0.27 0.05L6.742 0.05 6.742 12.839 0.27 12.839z"/>
    </defs>
    <g fill="none" fill-rule="evenodd">
        <g>
            <g>
                <g>
                    <path fill="#00A89B" d="M18.973 39.102c.511-.634 1.251-1.076 2.094-1.204V1.29c0-.808-.664-1.29-1.306-1.29-.236 0-.583.065-.899.379L.38 18.769c-.244.243-.379.566-.379.91 0 .344.134.667.378.91l18.483 18.413c.037.037.074.07.112.1" transform="translate(-420 -18) translate(.5) translate(420 18)"/>
                    <g transform="translate(-420 -18) translate(.5) translate(420 18) translate(19.255 38.46)">
                        <mask id="67ugu9u2ob" fill="#fff">
                            <use xlink:href="#iauwka6fia"/>
                        </mask>
                        <path fill="#878787" d="M2.315.474C1.077.474.068 1.478.068 2.712S1.077 4.95 2.315 4.95c1.24 0 2.247-1.004 2.247-2.238S3.554.474 2.315.474" mask="url(#67ugu9u2ob)"/>
                    </g>
                    <path fill="#96D200" d="M39.43 20.591c-.16-.384-.557-.794-1.193-.794H22.15V37.55l17-15.556c.45-.45.44-1.018.28-1.403" transform="translate(-420 -18) translate(.5) translate(420 18)"/>
                    <path fill="#00A89B" d="M55.141 28.605c-.525 0-1.05-.33-1.353-.825l-4.31-9.137-1.713 1.927v6.742c0 .715-.635 1.293-1.436 1.293-.801 0-1.464-.578-1.464-1.293V9.947c0-.715.663-1.265 1.464-1.265.801 0 1.436.55 1.436 1.265v6.77c2.072-2.532 4.144-5.09 6.216-7.595.248-.275.718-.44 1.133-.44 1.05 0 1.767 1.238 1.105 2.064l-4.669 5.669 4.862 10.374c.33.743-.221 1.816-1.271 1.816M61.715 25.881h2.569c1.63 0 2.927-1.376 2.927-3.082v-8.338c0-1.706-1.298-3.082-2.927-3.082h-2.57V25.88zm-1.41 2.56c-.8 0-1.463-.55-1.463-1.267V10.086c0-.688.663-1.24 1.464-1.24h3.978c3.204 0 5.8 2.506 5.8 5.615v8.338c0 3.11-2.596 5.641-5.8 5.641h-3.978zM80.911 21.478l-2.016-7.595-2.073 7.595h4.09zm4.669 5.504c.165.743-.442 1.623-1.436 1.623-.608 0-1.133-.357-1.326-.908l-1.16-3.687h-5.58c-.387 1.266-.719 2.449-1.106 3.687-.166.523-.746.908-1.381.908-.829 0-1.657-.798-1.354-1.65v.027L77.486 9.59c.194-.523.773-.908 1.409-.908.608 0 1.16.385 1.354.908l5.303 17.392h.028zM97.043 27.89l-6.354-12.714.249 12.136c0 .715-.636 1.293-1.436 1.293-.774 0-1.437-.578-1.437-1.293V9.947c0-.715.718-1.265 1.437-1.265.525 0 1.049.33 1.27.715l6.354 12.659-.249-12.109c0-.715.635-1.265 1.437-1.265.8 0 1.436.55 1.436 1.265v17.365c0 .605-.47 1.1-1.105 1.266l.055-.028c-.165.055-.248.055-.386.055-.497 0-1.05-.302-1.271-.715" transform="translate(-420 -18) translate(.5) translate(420 18)"/>
                    <path fill="#878787" d="M53.139 42.717v-8.999l-2.957 5.892c-.109.233-.325.359-.577.359-.235 0-.451-.126-.577-.36l-2.94-5.89v8.998c0 .36-.287.646-.649.646-.342 0-.63-.287-.63-.646V31.006c.018-.36.288-.647.63-.647.235 0 .47.144.578.36l3.588 7.184 3.606-7.184c.108-.216.343-.36.577-.36.379 0 .63.342.63.647v11.71c0 .36-.287.647-.63.647-.361 0-.65-.287-.65-.646M58.494 33.934v5.855c0 1.258 1.027 2.3 2.307 2.3 1.263 0 2.309-1.042 2.309-2.3v-5.855c0-1.258-1.046-2.3-2.309-2.3-1.28 0-2.307 1.042-2.307 2.3m-1.28 5.855v-5.855c0-1.958 1.604-3.575 3.587-3.575 1.984 0 3.589 1.617 3.589 3.575v5.855c0 1.976-1.605 3.575-3.589 3.575-1.983 0-3.588-1.599-3.588-3.575M73.135 39.502c0-1.366-1.1-2.46-2.47-2.46h-2.2v4.92h2.2c1.37 0 2.47-1.095 2.47-2.46zm-4.67-7.76v4.024h2.2c1.117 0 2.019-.916 2.019-2.03 0-1.078-.902-1.994-2.02-1.994h-2.2zm5.968 7.76c0 2.065-1.695 3.754-3.768 3.754h-2.85c-.342 0-.63-.287-.63-.647V31.096c0-.341.288-.629.63-.629h2.85c1.73 0 3.3 1.437 3.3 3.269 0 1.06-.506 2.012-1.281 2.605 1.046.682 1.749 1.832 1.749 3.161zM82.258 42.609c0 .36-.288.647-.649.647h-4.508c-.36 0-.649-.287-.649-.647 0-.359.29-.647.65-.647h1.622V31.76h-1.623c-.36 0-.649-.287-.649-.647 0-.359.29-.646.65-.646h4.507c.36 0 .65.287.65.646 0 .36-.29.647-.65.647h-1.604v10.202h1.604c.36 0 .65.288.65.647M91.364 42.501c0 .36-.289.647-.65.647h-5.247c-.36 0-.648-.287-.648-.647V31.006c0-.36.288-.647.648-.647.361 0 .631.288.631.647v10.849h4.616c.361 0 .65.287.65.646" transform="translate(-420 -18) translate(.5) translate(420 18)"/>
                    <g transform="translate(-420 -18) translate(.5) translate(420 18) translate(93.168 30.417)">
                        <mask id="1j2i1ya8fd" fill="#fff">
                            <use xlink:href="#xo41mosfkc"/>
                        </mask>
                        <path fill="#878787" d="M6.743 12.192c0 .36-.289.647-.65.647H.9c-.342 0-.63-.287-.63-.647V.679c0-.342.288-.63.63-.63h5.14c.36 0 .649.288.649.63 0 .359-.29.647-.65.647H1.55v3.987h3.967c.36 0 .649.287.649.646 0 .342-.289.629-.65.629H1.55v4.957h4.544c.36 0 .649.288.649.647" mask="url(#1j2i1ya8fd)"/>
                    </g>
                </g>
            </g>
        </g>
    </g>
</svg>
