<svg xmlns="http://www.w3.org/2000/svg" xmlns:xlink="http://www.w3.org/1999/xlink" width="280" height="55" viewBox="0 0 280 55">
    <defs>
        <path id="0v5jjx" d="M.413.273h14.823v27.675H.413z"/>
    </defs>
    <g fill="none" fill-rule="evenodd">
        <path fill="#878787" d="M114.048 53.103c-.695 0-1.392-.465-1.795-1.16l-5.718-12.84-2.273 2.707v9.475c0 1.006-.842 1.818-1.906 1.818-1.062 0-1.942-.812-1.942-1.818V26.882c0-1.006.88-1.779 1.942-1.779 1.064 0 1.906.773 1.906 1.78v9.513c2.749-3.559 5.498-7.154 8.247-10.675.33-.387.954-.618 1.503-.618 1.393 0 2.345 1.74 1.466 2.9l-6.194 7.967 6.45 14.58c.44 1.044-.292 2.553-1.686 2.553M123.672 48.606h3.53c2.239 0 4.023-1.897 4.023-4.251V32.849c0-2.353-1.784-4.252-4.023-4.252h-3.53v20.009zm-1.936 3.532c-1.1 0-2.012-.76-2.012-1.746v-23.58c0-.949.912-1.709 2.012-1.709h5.466c4.403 0 7.97 3.457 7.97 7.746v11.506c0 4.289-3.567 7.783-7.97 7.783h-5.466zM150.002 43.086l-2.755-10.675-2.828 10.675h5.583zm6.375 7.735c.226 1.045-.604 2.282-1.961 2.282a1.89 1.89 0 0 1-1.812-1.277l-1.585-5.182h-7.62c-.527 1.78-.98 3.442-1.507 5.182-.227.735-1.02 1.277-1.886 1.277-1.133 0-2.264-1.121-1.85-2.32v.038l7.168-24.442c.264-.735 1.057-1.276 1.923-1.276.83 0 1.585.54 1.85 1.276l7.242 24.442h.038zM171.922 52.097l-8.926-17.866.35 17.054c0 1.006-.893 1.818-2.018 1.818-1.085 0-2.018-.812-2.018-1.818V26.883c0-1.006 1.01-1.78 2.018-1.78.738 0 1.475.465 1.786 1.006l8.924 17.79-.35-17.016c0-1.006.894-1.78 2.019-1.78s2.017.774 2.017 1.78v24.402c0 .85-.658 1.547-1.552 1.779l.079-.039c-.234.078-.35.078-.544.078-.698 0-1.474-.425-1.785-1.006M189.241 45.407V32.798c0-4.215 3.462-7.695 7.741-7.695 4.005 0 7.312 3.132 7.7 6.922a1.384 1.384 0 0 1-1.244 1.508 1.387 1.387 0 0 1-1.517-1.237c-.234-2.513-2.372-4.448-4.939-4.448-2.723 0-4.979 2.244-4.979 4.95v12.609c0 2.706 2.256 4.95 4.98 4.95 2.566 0 4.704-1.934 4.938-4.447a1.387 1.387 0 0 1 1.517-1.239 1.384 1.384 0 0 1 1.244 1.51c-.388 3.982-3.889 6.922-7.7 6.922-4.28 0-7.74-3.442-7.74-7.696M222.069 50.772c0 .76-.595 1.366-1.34 1.366h-10.837c-.745 0-1.34-.607-1.34-1.366v-24.3c0-.76.595-1.369 1.34-1.369.745 0 1.304.608 1.304 1.368v22.934h9.533c.745 0 1.34.607 1.34 1.367M227.721 32.799v12.608c0 2.706 2.213 4.95 4.968 4.95 2.718 0 4.968-2.244 4.968-4.95V32.799c0-2.706-2.25-4.95-4.968-4.95-2.755 0-4.968 2.244-4.968 4.95m-2.755 12.608V32.799c0-4.216 3.454-7.696 7.723-7.696 4.27 0 7.725 3.48 7.725 7.696v12.608c0 4.253-3.454 7.696-7.725 7.696-4.269 0-7.723-3.443-7.723-7.696M245.241 45.407V26.495c0-.774.62-1.392 1.397-1.392.738 0 1.36.618 1.36 1.392v18.912c0 2.706 2.25 4.912 4.968 4.912 2.755 0 4.969-2.206 4.969-4.912V26.495c0-.774.62-1.392 1.396-1.392.738 0 1.359.618 1.359 1.392v18.912c0 4.215-3.454 7.696-7.724 7.696s-7.725-3.48-7.725-7.696"/>
        <g transform="translate(264.552 25.103)">
            <mask id="fGtENM" fill="#fff">
                <use xlink:href="#0v5jjx"/>
            </mask>
            <path fill="#878787" d="M3.155 25.15h4.4c2.74 0 4.94-2.217 4.94-4.976V8.008c0-2.76-2.2-4.975-4.94-4.975h-4.4v22.116zm-1.352 2.798c-.773 0-1.39-.622-1.39-1.399V1.634c0-.738.617-1.361 1.39-1.361h5.751c4.247 0 7.683 3.46 7.683 7.735v12.166c0 4.276-3.436 7.774-7.683 7.774H1.803z" mask="url(#fGtENM)"/>
        </g>
        <path fill="#00A89B" d="M53.684 12.175L56 9.87c-3.92-4.283-9.56-6.973-15.82-6.973-9.94 0-18.502 6.716-20.824 16.334a1.628 1.628 0 0 0 1.207 1.965 1.635 1.635 0 0 0 1.972-1.203c1.967-8.148 9.223-13.838 17.645-13.838 5.358 0 10.179 2.328 13.504 6.02"/>
        <path fill="#96D200" d="M63.431 48.819c-.122.005-.243.012-.366.012l-46.343.026c-7.43 0-13.475-6.108-13.475-13.616s6.045-13.615 13.475-13.615c3.212 0 6.323 1.161 8.759 3.268.682.59 1.707.51 2.29-.179a1.652 1.652 0 0 0-.179-2.313 16.617 16.617 0 0 0-10.87-4.057C7.502 18.345 0 25.925 0 35.24c0 9.317 7.502 16.897 16.723 16.897l46.342-.026c.888 0 1.752-.098 2.59-.27l-2.224-3.023z"/>
        <path fill="#878787" d="M70.483 48.276a2.9 2.9 0 0 0-2.897 2.897 2.9 2.9 0 0 0 2.897 2.896 2.9 2.9 0 0 0 2.896-2.896 2.9 2.9 0 0 0-2.896-2.897"/>
        <path fill="#96D200" d="M92.567 25.131c-.195-.48-.681-.993-1.458-.993h-19.66v22.207l20.777-19.46c.549-.56.536-1.274.341-1.754"/>
        <path fill="#00A89B" d="M67.029 48.276a3.938 3.938 0 0 1 2.488-1.479V1.594c0-.998-.79-1.594-1.555-1.594-.281 0-.696.081-1.071.47L44.865 23.176c-.29.3-.451.7-.451 1.124 0 .425.16.824.45 1.124L66.89 48.161c.046.047.093.077.14.115"/>
    </g>
</svg>
