<svg xmlns="http://www.w3.org/2000/svg" xmlns:xlink="http://www.w3.org/1999/xlink" width="90" height="55" viewBox="0 0 90 55">
    <defs>
        <path id="0v5jjx" d="M.413.273h14.823v27.675H.413z"/>
    </defs>
    <g fill="none" fill-rule="evenodd">
        <path fill="#00A89B" d="M53.684 12.175L56 9.87c-3.92-4.283-9.56-6.973-15.82-6.973-9.94 0-18.502 6.716-20.824 16.334a1.628 1.628 0 0 0 1.207 1.965 1.635 1.635 0 0 0 1.972-1.203c1.967-8.148 9.223-13.838 17.645-13.838 5.358 0 10.179 2.328 13.504 6.02"/>
        <path fill="#96D200" d="M63.431 48.819c-.122.005-.243.012-.366.012l-46.343.026c-7.43 0-13.475-6.108-13.475-13.616s6.045-13.615 13.475-13.615c3.212 0 6.323 1.161 8.759 3.268.682.59 1.707.51 2.29-.179a1.652 1.652 0 0 0-.179-2.313 16.617 16.617 0 0 0-10.87-4.057C7.502 18.345 0 25.925 0 35.24c0 9.317 7.502 16.897 16.723 16.897l46.342-.026c.888 0 1.752-.098 2.59-.27l-2.224-3.023z"/>
        <path fill="#878787" d="M70.483 48.276a2.9 2.9 0 0 0-2.897 2.897 2.9 2.9 0 0 0 2.897 2.896 2.9 2.9 0 0 0 2.896-2.896 2.9 2.9 0 0 0-2.896-2.897"/>
        <path fill="#96D200" d="M92.567 25.131c-.195-.48-.681-.993-1.458-.993h-19.66v22.207l20.777-19.46c.549-.56.536-1.274.341-1.754"/>
        <path fill="#00A89B" d="M67.029 48.276a3.938 3.938 0 0 1 2.488-1.479V1.594c0-.998-.79-1.594-1.555-1.594-.281 0-.696.081-1.071.47L44.865 23.176c-.29.3-.451.7-.451 1.124 0 .425.16.824.45 1.124L66.89 48.161c.046.047.093.077.14.115"/>
    </g>
</svg>
